PathFileType	4	(X/Y/Z)	 s08c0302.trc
DataRate	CameraRate	NumFrames	NumMarkers	Units	OrigDataRate	OrigDataStartFrame	OrigNumFrames
200	200	7	50	mm	200	251	2000
Frame#	Time	racr			lacr			c7			jug			rlel			rdr			llel			ldr			s2			lic			ric			lasi			rasi			rpsi			lpsi			rgt			lgt			rth1			rth2			rth3			rth4			rlfc			rmfc			rsh1			rsh2			rsh3			rsh4			rlmal			rmmal			rcal			rtoe			rmt5			lth1			lth2			lth4			lth3			llfc			lmfc			llmal			lmmal			lcal			lmt5			lsh1			lsh2			lsh3			lsh4			ltoe			SBIKE			LBIKE			RBIKE			
		X1	Y1	Z1	X2	Y2	Z2	X3	Y3	Z3	X4	Y4	Z4	X5	Y5	Z5	X6	Y6	Z6	X7	Y7	Z7	X8	Y8	Z8	X9	Y9	Z9	X10	Y10	Z10	X11	Y11	Z11	X12	Y12	Z12	X13	Y13	Z13	X14	Y14	Z14	X15	Y15	Z15	X16	Y16	Z16	X17	Y17	Z17	X18	Y18	Z18	X19	Y19	Z19	X20	Y20	Z20	X21	Y21	Z21	X22	Y22	Z22	X23	Y23	Z23	X24	Y24	Z24	X25	Y25	Z25	X26	Y26	Z26	X27	Y27	Z27	X28	Y28	Z28	X29	Y29	Z29	X30	Y30	Z30	X31	Y31	Z31	X32	Y32	Z32	X33	Y33	Z33	X34	Y34	Z34	X35	Y35	Z35	X36	Y36	Z36	X37	Y37	Z37	X38	Y38	Z38	X39	Y39	Z39	X40	Y40	Z40	X41	Y41	Z41	X42	Y42	Z42	X43	Y43	Z43	X44	Y44	Z44	X45	Y45	Z45	X46	Y46	Z46	X47	Y47	Z47	X48	Y48	Z48	X49	Y49	Z49	X50	Y50	Z50	
251	1.2550	517.570320	1354.561318	-45.850923	521.998850	1359.441627	-392.437238	501.735145	1424.207045	-223.769909	479.307049	1267.910162	-214.295994	595.562200	1115.865318	26.951112	800.840376	891.645797	-39.178506	636.154234	1131.655782	-439.229429	812.273217	888.260548	-393.579377	-54.813737	1211.856548	-241.327211	122.609298	1171.333516	-377.561227	101.450278	1206.818950	-73.415184	137.099457	1115.201265	-350.987587	116.940915	1153.131839	-106.034032	-23.352562	1253.966365	-191.824426	-12.559993	1247.742630	-286.613630	14.667185	1120.727634	-29.347743	29.082511	1066.862825	-410.285492	158.376157	1031.088480	-28.498224	245.587072	1013.930202	-28.286387	310.578223	955.218572	-32.824156	261.587803	1045.451138	-40.253957	411.215979	886.906918	-51.710603	395.408584	875.516568	-161.485897	350.814451	771.560204	-23.189533	348.276112	683.096904	-42.782518	302.446753	610.183986	-48.106950	374.950099	680.095756	-73.714965	261.006486	499.187960	-59.705498	275.125046	523.024407	-146.135443	185.454990	456.020245	-103.263029	481.031582	501.889035	-97.151330	398.005756	454.207763	-31.885196	61.592517	932.943871	-425.478293	99.561791	854.377421	-418.714914	133.815289	861.038170	-407.189601	91.873647	765.669367	-413.726138	108.971370	639.517250	-386.382804	95.423871	617.939542	-286.282365	14.654405	228.181672	-394.629936	27.904133	252.647922	-307.498248	-47.479635	178.954936	-357.450130	166.716342	197.172321	-414.571827	78.212771	514.339189	-418.199281	77.004871	430.536718	-398.720070	39.792929	350.775171	-404.864212	93.661157	430.623213	-363.812792	231.875033	252.382488	-343.520656	-142.345767	937.283093	-221.152030	18.560671	83.780908	-425.660697	10.982322	80.241694	-27.803255	
252	1.2600	517.531754	1354.420190	-45.822235	521.831386	1359.375422	-392.347483	501.641888	1424.203676	-223.787173	479.252020	1267.974529	-214.315523	595.636155	1115.867237	26.907010	800.983180	891.666472	-39.105643	636.165515	1131.667457	-439.129588	812.249514	888.245705	-393.531893	-54.935520	1211.839886	-241.372698	122.481893	1171.300138	-377.479979	101.359815	1206.822950	-73.469133	136.911244	1115.183881	-350.865996	116.880528	1153.164225	-106.083947	-23.495167	1253.959486	-191.903935	-12.622864	1247.748989	-286.662657	14.591954	1120.741329	-29.407414	28.995524	1066.858661	-410.283221	158.310093	1031.124578	-28.489604	245.513388	1013.956929	-28.266823	310.521026	955.234997	-32.819966	261.506457	1045.488828	-40.212705	411.177334	886.974335	-51.691645	395.303767	875.621252	-161.453641	350.713255	771.661570	-23.159643	348.127356	683.193360	-42.753140	302.299748	610.308301	-48.085661	374.772928	680.210682	-73.740975	260.835338	499.305404	-59.744213	274.970763	523.138569	-146.115843	185.297917	456.109363	-103.276106	480.846155	502.082062	-97.128435	397.853137	454.322758	-31.923222	61.408461	932.963558	-425.552627	99.305261	854.375892	-418.845020	133.558235	861.006584	-407.322839	91.532490	765.665333	-413.867692	108.559828	639.503790	-386.532070	95.186497	617.907344	-286.399269	14.792501	228.064509	-394.677539	28.235521	252.395894	-307.688738	-47.270826	178.803864	-357.484255	166.897281	197.032945	-414.591359	77.992792	514.320520	-418.300271	76.890667	430.498827	-398.830874	39.810386	350.715800	-404.928638	93.558850	430.605357	-363.870385	232.071454	252.193630	-343.529387	-142.350404	937.274074	-221.184749	18.571281	83.803178	-425.656006	11.010367	80.161330	-27.811547	
253	1.2650	517.481466	1354.244146	-45.811247	521.685240	1359.296396	-392.265558	501.517768	1424.207865	-223.749958	479.202518	1268.064598	-214.347426	595.727553	1115.857021	26.873316	801.136090	891.688649	-39.033692	636.191995	1131.658821	-438.963321	812.264472	888.270211	-393.527803	-55.040830	1211.833147	-241.404665	122.316368	1171.250011	-377.359904	101.268073	1206.839193	-73.485626	136.775286	1115.170681	-350.761708	116.808602	1153.216965	-106.095774	-23.657989	1253.926257	-191.974467	-12.742063	1247.755433	-286.684141	14.481975	1120.799631	-29.434319	28.919994	1066.782933	-410.024302	158.240400	1031.161828	-28.452254	245.465784	1014.007600	-28.244477	310.446858	955.289776	-32.759304	261.446817	1045.549494	-40.163494	411.118423	887.071072	-51.656530	395.186258	875.713846	-161.379674	350.741428	771.716738	-23.207767	348.009653	683.288310	-42.731794	302.182233	610.401469	-48.057783	374.629921	680.292742	-73.741334	260.707636	499.424864	-59.768832	274.810150	523.235486	-146.125318	185.162277	456.216721	-103.322309	480.659078	502.280404	-97.141111	397.704313	454.492105	-31.910037	61.202343	932.978706	-425.616246	99.021690	854.353359	-418.951091	133.311447	860.976214	-407.414482	91.051512	765.801926	-414.474010	108.218997	639.505679	-386.609752	94.979475	617.885545	-286.496039	14.944075	227.941240	-394.741601	28.350446	252.337359	-307.676358	-47.105092	178.671496	-357.528057	167.069110	196.866363	-414.585804	77.767752	514.283002	-418.367079	76.790475	430.468450	-398.879973	39.780606	350.624392	-404.980000	93.451187	430.603403	-363.939947	232.222732	252.026068	-343.544632	-142.551051	937.147706	-220.759920	18.552411	83.777330	-425.671476	11.077720	80.196097	-27.822915	
254	1.2700	517.321112	1354.128571	-45.699238	520.989635	1358.423100	-389.836287	501.374544	1424.199679	-223.707866	479.014356	1268.108831	-214.321357	595.744817	1115.859372	26.869168	801.132032	891.698299	-39.046467	636.098792	1131.677373	-438.857983	812.295063	888.280887	-393.559315	-55.125422	1211.817480	-241.470848	122.348922	1171.321893	-377.531761	101.033447	1206.899068	-73.489928	136.742029	1115.170861	-350.814986	116.660357	1153.310577	-106.096772	-23.774467	1253.927059	-192.004760	-12.858199	1247.745814	-286.740126	14.261446	1120.969801	-29.368448	28.829686	1066.782594	-410.043045	158.062900	1031.240308	-28.414539	245.286891	1014.089172	-28.181525	310.292005	955.376832	-32.718842	261.295663	1045.647324	-40.112151	410.959018	887.178157	-51.583193	395.122685	875.851781	-161.367454	350.557047	771.865974	-23.154831	347.853946	683.410927	-42.664715	301.997644	610.575482	-47.997568	374.509889	680.488080	-73.705033	260.522273	499.624850	-59.735541	274.672795	523.370682	-146.135511	184.982744	456.364761	-103.316075	480.509658	502.398839	-97.134788	397.483329	454.647220	-31.919885	61.028788	932.990359	-425.696518	98.792978	854.332819	-419.056144	133.093699	860.939829	-407.507743	90.883106	765.639028	-414.094742	107.932903	639.506176	-386.641533	94.673851	617.909310	-286.513658	15.088334	227.852983	-394.802319	28.423440	252.249182	-307.731103	-46.924853	178.546968	-357.532087	167.287078	196.724655	-414.569355	77.573331	514.231023	-418.427901	76.701995	430.412971	-398.937494	39.803169	350.539248	-405.005232	93.393663	430.574383	-363.988722	232.403185	251.888456	-343.549029	-142.535273	937.072896	-220.598598	18.569294	83.797247	-425.670964	11.001927	80.210555	-27.816381	
255	1.2750	517.195357	1353.980986	-45.606170	520.897798	1358.372894	-389.815968	501.232644	1424.199880	-223.616481	478.846080	1268.131360	-214.263793	595.774599	1115.857360	26.919141	801.134525	891.714255	-39.054335	636.009766	1131.658855	-438.805482	812.307694	888.280354	-393.577687	-55.256066	1211.815294	-241.513134	122.199624	1171.281160	-377.462861	100.837330	1206.943724	-73.492347	136.629576	1115.191005	-350.786158	116.495657	1153.374004	-106.063730	-23.921729	1253.938527	-192.038964	-12.970257	1247.747222	-286.807690	14.071039	1121.009170	-29.377172	28.705510	1066.803140	-410.056886	157.953057	1031.354819	-28.348387	245.132659	1014.174653	-28.165457	310.189925	955.438039	-32.687893	261.143585	1045.733795	-40.048956	410.822751	887.330030	-51.508527	395.035458	875.995987	-161.374646	350.424409	772.004672	-23.116179	347.767986	683.515439	-42.674983	301.918784	610.662164	-48.053963	374.389426	680.613507	-73.659429	260.349934	499.815379	-59.678478	274.611792	523.498950	-146.130594	184.806933	456.535103	-103.282406	480.380818	502.477629	-97.083988	397.344660	454.759147	-31.906998	60.853957	933.025334	-425.767171	98.562253	854.326331	-419.154535	132.839320	860.935974	-407.638260	90.610795	765.639570	-414.165781	107.581997	639.506683	-386.753313	94.420809	617.938192	-286.550380	15.181257	227.758147	-394.806030	28.435778	252.231097	-307.726397	-46.795062	178.462234	-357.543293	167.415401	196.607376	-414.586550	77.353491	514.215737	-418.506538	76.557230	430.406282	-399.031699	39.748935	350.499029	-405.074970	93.262073	430.586459	-364.079824	232.509370	251.787699	-343.551087	-142.534972	937.105153	-220.670604	18.570953	83.812029	-425.658897	10.955507	80.215144	-27.792973	
256	1.2800	517.129724	1353.876512	-45.541708	520.783046	1358.263804	-389.663884	501.109116	1424.172591	-223.587268	478.767014	1268.160486	-214.233777	595.870277	1115.819683	26.961449	801.244150	891.741272	-38.999536	635.969513	1131.598117	-438.797808	812.310700	888.295928	-393.576460	-55.401927	1211.824140	-241.565032	122.017481	1171.210328	-377.299490	100.792320	1207.041198	-73.519325	136.481803	1115.163155	-350.720823	116.385108	1153.419350	-106.111380	-24.078891	1253.954970	-192.063649	-13.114183	1247.752977	-286.837549	13.953197	1121.029186	-29.447904	28.576096	1066.809728	-410.084558	157.869367	1031.440725	-28.361939	245.051463	1014.262632	-28.187129	310.138055	955.499214	-32.680794	261.058831	1045.817724	-40.068215	410.772106	887.442130	-51.489423	394.924590	876.128298	-161.359619	350.374393	772.160643	-23.096276	347.704112	683.616667	-42.643390	301.871635	610.829270	-48.019420	374.311264	680.742152	-73.673578	260.322441	499.927477	-59.708312	274.559973	523.658197	-146.137584	184.750666	456.724856	-103.270514	480.346471	502.460059	-97.068309	397.310545	454.843480	-31.931501	60.655001	933.020674	-425.817005	98.328429	854.298669	-419.222905	132.611826	860.870507	-407.723456	90.283283	765.653770	-414.264064	107.206348	639.463249	-386.819664	94.235581	617.921075	-286.605370	15.224638	227.683572	-394.825268	28.536874	252.139525	-307.765922	-46.712476	178.358171	-357.546452	167.521740	196.485615	-414.568440	77.121644	514.190224	-418.566817	76.424079	430.371231	-399.089532	39.709738	350.397306	-405.082118	93.152948	430.584395	-364.152463	232.606317	251.692419	-343.558616	-142.526731	937.178751	-220.748729	18.553980	83.819985	-425.656172	11.020890	80.181233	-27.836943	
257	1.2850	517.059029	1353.793572	-45.454413	520.771359	1358.220932	-389.704160	500.989499	1424.166230	-223.586763	478.667444	1268.292910	-214.236926	595.889258	1115.799838	27.053350	801.347450	891.780247	-38.911765	635.865038	1131.552356	-438.825605	812.337240	888.330067	-393.624891	-55.557320	1211.803382	-241.625273	121.952195	1171.199575	-377.328655	100.612475	1207.122699	-73.549472	136.437641	1115.143939	-350.735700	116.221444	1153.515664	-106.155923	-24.230817	1253.931517	-192.069769	-13.274837	1247.738452	-286.884652	13.784096	1121.077130	-29.488411	28.463604	1066.803997	-410.124210	157.739828	1031.552222	-28.359128	244.912876	1014.444023	-28.177700	310.030659	955.669420	-32.663939	260.926653	1045.933394	-40.039983	410.665867	887.588987	-51.467300	394.863617	876.275339	-161.313571	350.264679	772.321665	-23.060482	347.605981	683.757635	-42.584659	301.742466	610.994416	-47.987049	374.259696	680.877350	-73.625235	260.276064	500.050255	-59.733230	274.508486	523.865457	-146.110042	184.669993	456.926286	-103.289302	480.304851	502.554500	-97.118389	397.230881	454.921371	-31.948976	60.466793	933.033136	-425.888309	98.101300	854.268718	-419.318077	132.399198	860.825027	-407.845868	89.992285	765.633844	-414.347372	106.859514	639.449466	-386.916399	93.983239	617.977074	-286.645670	15.280745	227.595228	-394.843790	28.529941	252.121578	-307.749945	-46.642473	178.253563	-357.544353	167.604520	196.406783	-414.576336	76.912844	514.143780	-418.600219	76.294555	430.334736	-399.123252	39.659365	350.350141	-405.118059	93.026376	430.572010	-364.170025	232.675379	251.623922	-343.565645	-142.539808	937.117561	-220.652745	18.574678	83.811003	-425.662622	10.990451	80.198537	-27.843110	
